<svg id="SvgjsSvg1091" width="288" height="288" xmlns="http://www.w3.org/2000/svg" version="1.1" xmlns:xlink="http://www.w3.org/1999/xlink" xmlns:svgjs="http://svgjs.com/svgjs"><defs id="SvgjsDefs1092"></defs><g id="SvgjsG1093"><svg xmlns="http://www.w3.org/2000/svg" enable-background="new 0 0 512 512" viewBox="0 0 512 512" width="288" height="288"><path fill="none" stroke="#ffffff" stroke-linecap="round" stroke-linejoin="round" stroke-miterlimit="10" stroke-width="15" d="M59.84 356.33c36.26 3.32 73.79 12.58 111.16 27.78v39.09L17.75 395.94V71.8l42.09 7.48V356.33zM255.8 430.06v8.22L225 432.8v-22.44c10.33 5.86 20.58 12.19 30.74 18.98v.8C255.76 430.11 255.78 430.09 255.8 430.06z" class="colorStroke231F20 svgStroke"></path><path fill="none" stroke="#ffffff" stroke-linecap="round" stroke-linejoin="round" stroke-miterlimit="10" stroke-width="15" d="M256.953 122.685v307.458l-.577-.101-.332-.058-.173-.029-.072-.014-.058-.014V124.128c.014-.029.043-.058.058-.087v-1.558l.087.014.159.029.332.058.389.072L256.953 122.685zM89.83 324.04c23.76-.51 52.4 7.6 81.17 24.33v35.74c-37.37-15.2-74.9-24.46-111.16-27.78V48.88c9.91.9 19.92 2.26 29.99 4.06V324.04zM255.74 428.31v1.03c-10.16-6.79-20.41-13.12-30.74-18.98v-19.47C235.81 401.98 246.16 414.46 255.74 428.31z" class="colorStroke231F20 svgStroke"></path><path fill="none" stroke="#ffffff" stroke-linecap="round" stroke-linejoin="round" stroke-miterlimit="10" stroke-width="15" d="M256.953,122.685v307.458c-0.087-0.058-0.159-0.115-0.245-0.159c-0.115-0.087-0.216-0.159-0.332-0.231c-0.087-0.058-0.173-0.115-0.26-0.159c-0.101-0.087-0.216-0.159-0.317-0.216c-0.014-0.014-0.043-0.029-0.058-0.043V124.128c0.014-0.029,0.043-0.058,0.058-0.087v-1.659c-0.188-0.289-0.375-0.577-0.591-0.851c0.202,0.115,0.389,0.245,0.591,0.389c0.187,0.115,0.389,0.245,0.577,0.375c0.115,0.072,0.216,0.144,0.332,0.231c0.029,0.014,0.072,0.043,0.101,0.058C256.852,122.628,256.91,122.657,256.953,122.685z" class="colorStroke231F20 svgStroke"></path><path fill="none" stroke="#ffffff" stroke-linecap="round" stroke-linejoin="round" stroke-miterlimit="10" stroke-width="15" d="M255.8,122.38v1.66c-0.02,0.03-0.04,0.06-0.06,0.09v304.18c-9.58-13.85-19.93-26.33-30.74-37.42c-17.23-17.68-35.64-31.86-54-42.52c-28.77-16.73-57.41-24.84-81.17-24.33V18.02c46.23-0.97,110.95,30.67,159.18,94.91c2.1,2.8,4.18,5.67,6.2,8.6C255.42,121.81,255.61,122.09,255.8,122.38z" class="colorStroke231F20 svgStroke"></path><path fill="none" stroke="#ffffff" stroke-linecap="round" stroke-linejoin="round" stroke-miterlimit="10" stroke-width="15" d="M257.011,124.128v306.015c-0.014-0.029-0.043-0.058-0.058-0.087c-0.029-0.029-0.043-0.072-0.072-0.101c-0.087-0.115-0.159-0.245-0.245-0.361c-0.087-0.13-0.173-0.245-0.26-0.361c-0.188-0.288-0.375-0.562-0.577-0.837c0-0.029-0.029-0.058-0.058-0.087V124.128c0.014-0.029,0.043-0.058,0.058-0.087v-1.659c0.043,0.043,0.072,0.072,0.087,0.115c0.029,0.029,0.043,0.058,0.058,0.087c0.029,0.029,0.043,0.043,0.043,0.072c0.144,0.188,0.274,0.375,0.389,0.563c0.202,0.274,0.389,0.548,0.577,0.822C256.967,124.07,256.996,124.099,257.011,124.128z" class="colorStroke231F20 svgStroke"></path><path fill="none" stroke="#ffffff" stroke-linecap="round" stroke-linejoin="round" stroke-miterlimit="10" stroke-width="15" d="M495,71.796v324.147l-238.047,42.336v-8.222c0.014,0.029,0.043,0.058,0.058,0.087v-0.808c64.016-42.797,131.941-67.146,195.899-73.002V79.282L495,71.796z" class="colorStroke231F20 svgStroke"></path><path fill="none" stroke="#ffffff" stroke-linecap="round" stroke-linejoin="round" stroke-miterlimit="10" stroke-width="15" d="M257.011,124.128v305.799l-0.058,0.014l-0.072,0.014l-0.173,0.029l-0.332,0.058l-0.577,0.101V122.685l0.187-0.029l0.389-0.072l0.332-0.058l0.159-0.029l0.087-0.014v1.558C256.967,124.07,256.996,124.099,257.011,124.128z" class="colorStroke231F20 svgStroke"></path><path fill="none" stroke="#ffffff" stroke-linecap="round" stroke-linejoin="round" stroke-miterlimit="10" stroke-width="15" d="M452.909,48.875v307.458c-63.958,5.856-131.883,30.205-195.899,73.002v-1.024c48.784-70.55,117.487-105.299,165.91-104.275V52.943C432.989,51.14,443,49.784,452.909,48.875z" class="colorStroke231F20 svgStroke"></path><path fill="none" stroke="#ffffff" stroke-linecap="round" stroke-linejoin="round" stroke-miterlimit="10" stroke-width="15" d="M256.953,124.041c0.014,0.029,0.043,0.058,0.058,0.087v305.207c-0.014,0.014-0.043,0.029-0.058,0.043c-0.101,0.058-0.216,0.13-0.317,0.216c-0.087,0.043-0.173,0.101-0.26,0.159c-0.115,0.072-0.216,0.144-0.332,0.231c-0.087,0.043-0.159,0.101-0.245,0.159V122.685c0.043-0.029,0.101-0.058,0.144-0.101c0.029-0.014,0.072-0.043,0.101-0.058c0.115-0.087,0.216-0.159,0.332-0.231c0.188-0.13,0.389-0.26,0.577-0.375c0.202-0.144,0.389-0.274,0.591-0.389c-0.216,0.274-0.404,0.562-0.591,0.851V124.041z" class="colorStroke231F20 svgStroke"></path><path fill="none" stroke="#ffffff" stroke-linecap="round" stroke-linejoin="round" stroke-miterlimit="10" stroke-width="15" d="M422.921 18.021v306.015c-48.423-1.024-117.127 33.724-165.91 104.275V124.128c-.014-.029-.043-.058-.058-.087v-1.659c.188-.289.375-.577.591-.851 2.034-2.928 4.097-5.799 6.217-8.597C311.982 48.688 376.691 17.055 422.921 18.021zM225 390.89V495l-27-27-27 27V348.37C189.36 359.03 207.77 373.21 225 390.89z" class="colorStroke231F20 svgStroke"></path></svg></g></svg>